<svg xmlns="http://www.w3.org/2000/svg" version="1.0" viewBox="0 0 802 900" preserveAspectRatio="">

<g transform="translate(400.000000,852.000000) scale(0.100000,-0.100000)" fill="#cb2027" stroke="none">
<path d="M4478 9386 c-202 -694 -579 -1988 -838 -2876 -833 -2856 -1483 -5087 -1685 -5780 -108 -371 -200 -687 -205 -702 l-9 -28 207 0 207 0 252 868 c326 1118 1605 5507 2154 7389 l289 992 -2 699 -3 699 -367 -1261z"/>
<path d="M4397 6483 c-246 -846 -506 -1736 -577 -1978 -162 -557 -1301 -4464 -1308 -4488 -4 -16 56 -17 1167 -17 l1171 0 0 4010 c0 2206 -1 4010 -3 4010 -1 0 -204 -692 -450 -1537z"/>
</g>
</svg>