<svg xmlns="http://www.w3.org/2000/svg" version="1.0" width="1204.000000pt" height="417.000000pt" viewBox="0 0 1204.000000 417.000000" preserveAspectRatio="xMidYMid meet">

<g transform="translate(0.000000,417.000000) scale(0.100000,-0.100000)" class="fill-current dark:text-white text-black" stroke="none">
<path d="M6307 2951 c-111 -36 -176 -101 -221 -219 -20 -55 -21 -72 -24 -627 -3 -607 -1 -646 44 -742 46 -96 145 -157 281 -173 163 -18 308 20 373 98 47 57 63 126 64 282 l1 135 -115 0 -115 0 -5 -115 c-6 -124 -13 -144 -61 -184 -25 -21 -41 -26 -86 -26 -49 0 -59 4 -88 33 -54 54 -56 81 -52 693 3 597 4 603 60 650 39 33 131 34 171 3 42 -33 50 -58 56 -169 l5 -105 115 0 115 0 -2 131 c-1 110 -5 140 -23 181 -26 62 -80 115 -145 145 -71 32 -263 37 -348 9z"/>
<path d="M10767 2942 c-20 -20 -27 -39 -27 -66 0 -48 13 -72 50 -91 47 -24 78 -19 117 20 32 32 35 39 30 78 -8 56 -43 87 -101 87 -33 0 -48 -6 -69 -28z m131 -14 c50 -48 11 -138 -61 -138 -57 0 -99 63 -75 115 25 55 89 66 136 23z"/>
<path d="M10800 2870 c0 -38 4 -59 10 -55 6 3 10 17 10 31 0 33 19 30 33 -6 17 -46 26 -36 24 28 l-2 57 -37 3 -38 3 0 -61z m50 40 c13 -9 13 -11 0 -20 -22 -15 -30 -12 -30 10 0 22 8 25 30 10z"/>
<path d="M1340 2080 l0 -880 120 0 120 0 2 383 3 382 170 5 c198 7 250 23 311 93 56 66 66 115 71 347 6 236 -4 329 -45 410 -60 119 -134 140 -499 140 l-253 0 0 -880z m503 650 c43 -34 51 -79 50 -270 -1 -273 -14 -292 -203 -288 l-105 3 -3 288 -2 287 118 0 c104 0 123 -3 145 -20z"/>
<path d="M2460 2080 l0 -880 335 0 335 0 0 100 0 100 -210 0 -210 0 0 300 0 300 195 0 195 0 0 100 0 100 -195 0 -195 0 0 275 0 275 208 2 207 3 3 103 3 102 -336 0 -335 0 0 -880z"/>
<path d="M3420 2080 l0 -880 125 0 125 0 0 386 0 387 89 -6 c52 -3 102 -12 121 -22 60 -31 64 -57 68 -380 1 -159 7 -307 13 -327 l10 -38 117 0 118 0 -7 58 c-4 31 -8 183 -8 338 -1 307 -8 355 -57 408 -30 31 -97 65 -131 66 -12 0 -25 5 -28 10 -3 6 3 10 15 10 50 0 137 67 170 130 28 54 40 141 40 284 -1 236 -31 350 -107 400 -67 45 -151 56 -425 56 l-248 0 0 -880z m482 659 c11 -6 26 -26 34 -44 20 -48 29 -243 15 -349 -17 -143 -45 -168 -187 -174 l-94 -4 0 291 0 291 106 0 c58 0 114 -5 126 -11z"/>
<path d="M4530 2080 l0 -880 125 0 125 0 0 400 0 400 200 0 200 0 0 100 0 100 -200 0 -200 0 0 275 0 275 210 0 210 0 0 105 0 105 -335 0 -335 0 0 -880z"/>
<path d="M5490 2080 l0 -880 125 0 125 0 0 880 0 880 -125 0 -125 0 0 -880z"/>
<path d="M7130 2080 l0 -880 120 0 120 0 0 880 0 880 -120 0 -120 0 0 -880z"/>
<path d="M7706 2952 c-3 -5 -4 -399 -3 -878 l2 -869 333 -3 332 -2 0 100 0 100 -210 0 -210 0 0 300 0 300 200 0 200 0 0 100 0 100 -200 0 -200 0 0 275 0 275 210 0 210 0 0 105 0 105 -329 0 c-182 0 -332 -4 -335 -8z"/>
<path d="M8670 2080 l0 -881 108 3 107 3 5 737 5 737 133 -692 c73 -381 138 -714 144 -740 l10 -47 174 0 174 0 0 880 0 880 -115 0 -115 0 -1 -727 -1 -728 -145 728 -145 727 -169 0 -169 0 0 -880z"/>
<path d="M9830 2855 l0 -105 145 0 145 0 2 -772 3 -773 123 -3 122 -3 0 776 0 775 145 0 145 0 0 105 0 105 -415 0 -415 0 0 -105z"/>
</g>
</svg>